<?xml version="1.0" standalone="no"?>
<!DOCTYPE svg PUBLIC "-//W3C//DTD SVG 20010904//EN"
 "http://www.w3.org/TR/2001/REC-SVG-20010904/DTD/svg10.dtd">
<svg version="1.0" xmlns="http://www.w3.org/2000/svg"
 width="256.000000pt" height="256.000000pt" viewBox="0 0 256.000000 256.000000"
 preserveAspectRatio="xMidYMid meet">
<metadata>
Created by potrace 1.14, written by Peter Selinger 2001-2017
</metadata>
<g transform="translate(0.000000,256.000000) scale(0.100000,-0.100000)"
fill="#000000" stroke="none">
<path d="M0 1280 l0 -1280 1280 0 1280 0 0 1280 0 1280 -1280 0 -1280 0 0
-1280z m830 453 c62 -20 104 -55 137 -111 39 -66 39 -171 1 -254 -52 -112
-167 -194 -288 -205 l-59 -6 -12 -56 c-6 -31 -23 -112 -38 -181 l-26 -125 -93
-3 c-50 -1 -92 0 -92 3 0 5 58 278 136 645 19 90 36 166 37 167 6 6 178 25
183 20 3 -3 -14 -96 -37 -206 -23 -110 -40 -203 -37 -206 12 -12 58 8 97 41
23 21 54 62 73 102 42 85 51 205 20 261 -38 70 -138 90 -266 54 -49 -13 -71
-27 -112 -68 -66 -66 -88 -127 -82 -232 l3 -75 -40 5 c-59 8 -85 43 -85 115 1
73 24 124 86 185 134 132 329 183 494 130z m676 13 c1 0 4 -170 8 -375 4 -206
8 -376 9 -377 2 -2 61 167 132 374 l130 377 83 3 82 3 0 -68 c0 -111 13 -688
15 -691 3 -3 25 59 153 433 l109 320 48 3 c42 3 47 1 41 -15 -4 -10 -54 -144
-112 -298 -57 -154 -134 -361 -171 -460 l-68 -180 -91 -3 -91 -3 -6 122 c-4
67 -7 197 -8 288 -1 91 -4 177 -8 190 -5 20 -32 -42 -123 -285 l-116 -309 -93
0 -94 0 -6 240 c-4 132 -7 327 -9 433 -1 148 -4 192 -14 192 -22 0 -94 -54
-121 -89 -43 -60 -58 -112 -53 -196 l3 -77 -40 5 c-59 8 -85 43 -85 115 1 73
24 124 84 185 78 77 184 130 295 146 44 7 110 5 117 -3z"/>
</g>
</svg>
